# xmcd
#
# Track frame offsets: 
#        150
#        13855
#        27655
#        42137
#        53035
#        63812
#        74707
#        86275
#        97880
#        110660
#        119397
#        130130
#        141245
#        153060
#        165050
#        178427
#        189395
#        203965
#        215612
#        228127
#
# Disc length: 3173 seconds
#
# Revision: 1
# Processed by: cddbd v1.5.2PL0 Copyright (c) Steve Scherf et al.
# Submitted via: ExactAudioCopy v0.90b4
#
DISCID=120c6314
DTITLE=Nat King Cole - Nat King Cole [Masters Of Jazz] (Disc2)
DYEAR=1998
DGENRE=Jazz
TTITLE0=Route 66
TTITLE1=Could-'Ja?
TTITLE2=The Christmas Song
TTITLE3=That's What
TTITLE4=When I Take My Sugar To Tea
TTITLE5=The Trouble With Me Is You
TTITLE6=Too Marvelous For Words
TTITLE7=Poor Butterfly
TTITLE8=I'll Never Be The Same
TTITLE9=Cole Capers
TTITLE10=Ke Mo Ki Mo
TTITLE11=My Baby Likes To Be-Bop
TTITLE12=There's A Train Out For Dreamland
TTITLE13=Nature Boy
TTITLE14=Laguna Mood
TTITLE15=Little Girl
TTITLE16=The Geek
TTITLE17=Blue And Sentimental
TTITLE18=I've Got A Way With Women
TTITLE19=Lulubelle
EXTD=nat king cole\n(master of jazz) (box) uk disc2\nEasy Listening
EXTT0=
EXTT1=
EXTT2=
EXTT3=
EXTT4=
EXTT5=
EXTT6=
EXTT7=
EXTT8=
EXTT9=
EXTT10=
EXTT11=
EXTT12=
EXTT13=
EXTT14=
EXTT15=
EXTT16=
EXTT17=
EXTT18=
EXTT19=
PLAYORDER=
